<?xml version="1.0" encoding="utf-8"?>
<svg version="1.1" viewBox="0 -40 550 550" xmlns="http://www.w3.org/2000/svg">
  <g fill="#006298" fill-rule="none" stroke="none" stroke-width="1" stroke-linecap="butt" stroke-linejoin="miter" stroke-miterlimit="10" stroke-dasharray="" stroke-dashoffset="0" font-family="none" font-weight="none" font-size="none" text-anchor="none" style="mix-blend-mode: normal">
    <g data-paper-data="{&quot;isGlobalGroup&quot;:true,&quot;bounds&quot;:{&quot;x&quot;:65,&quot;y&quot;:134.91096067769388,&quot;width&quot;:420,&quot;height&quot;:200.17807864461224}}">
      <g data-paper-data="{&quot;isPrimaryText&quot;:true}" fill-rule="nonzero">
        <path d="M99.87138,315.5382c-1.20049,6.40261 -6.57411,11.03307 -12.97673,11.03307c-7.14577,0 -12.80523,-6.00245 -12.80523,-13.49122c0,-7.54594 5.65945,-13.60555 12.80523,-13.60555c4.4018,0 8.74643,2.22948 11.8334,6.80278l6.91711,-4.91629c-3.83013,-6.23111 -10.86158,-10.34708 -18.80768,-10.34708c-12.11923,0 -21.83748,9.88975 -21.83748,22.06615c0,12.1764 9.71825,22.00898 21.89465,22.00898c11.31891,0 20.69416,-8.63209 21.95182,-19.55084z" data-paper-data="{&quot;glyphName&quot;:&quot;C&quot;,&quot;glyphIndex&quot;:0,&quot;firstGlyphOfWord&quot;:true,&quot;word&quot;:1}"/>
        <path d="M134.79992,335.08904c12.1764,0 22.00898,-9.88975 22.00898,-22.06615c0,-12.1764 -9.83258,-22.00898 -22.06615,-22.00898c-12.1764,0 -22.00898,9.83258 -22.00898,22.00898c0,12.1764 9.83258,22.06615 22.06615,22.06615zM134.74275,299.4745c7.20294,0 12.97673,6.05962 12.97673,13.54839c0,7.6031 -5.71662,13.54839 -12.91956,13.54839c-7.31727,0 -12.97673,-5.94528 -12.97673,-13.54839c0,-7.48877 5.65945,-13.54839 12.91956,-13.54839z" data-paper-data="{&quot;glyphName&quot;:&quot;O&quot;,&quot;glyphIndex&quot;:1,&quot;word&quot;:1}"/>
        <path d="M163.15435,291.75707v42.58881h17.32136c12.23356,0 22.23765,-9.08942 22.23765,-21.32299c0,-12.11923 -10.00408,-21.26582 -22.29481,-21.26582zM172.01511,326.34261v-26.58228h8.40343c7.4316,0 13.20539,5.54512 13.20539,13.26256c0,7.66027 -5.77379,13.31972 -13.14822,13.31972z" data-paper-data="{&quot;glyphName&quot;:&quot;D&quot;,&quot;glyphIndex&quot;:2,&quot;word&quot;:1}"/>
        <path d="M235.46958,334.34588v-8.00327h-17.55002v-10.63291h16.00653v-8.00327h-16.00653v-7.9461h13.77705v-8.00327h-22.63781v42.58881z" data-paper-data="{&quot;glyphName&quot;:&quot;E&quot;,&quot;glyphIndex&quot;:3,&quot;word&quot;:1}"/>
        <path d="M256.67824,334.34588c7.83177,0 15.09187,-5.03062 15.09187,-13.71989c0,-4.11597 -1.94365,-7.7746 -5.77379,-10.40425c2.05798,-1.88648 3.02981,-4.2303 3.02981,-7.20294c0,-7.9461 -5.65945,-11.26174 -13.54839,-11.26174h-13.66272v42.58881zM250.67579,326.34261v-10.97591h6.28828c3.65864,0 5.71662,2.11515 5.71662,5.54512c0,3.31564 -2.05798,5.43079 -5.71662,5.43079zM250.67579,307.64927v-7.88893h4.45896c2.45815,0 4.80196,0.68599 4.80196,3.94447c0,1.77215 -0.5145,3.94447 -4.80196,3.94447z" data-paper-data="{&quot;glyphName&quot;:&quot;B&quot;,&quot;glyphIndex&quot;:4,&quot;word&quot;:1}"/>
        <path d="M278.11556,291.75707v42.58881h26.01062v-8.00327h-17.14986v-34.58555z" data-paper-data="{&quot;glyphName&quot;:&quot;L&quot;,&quot;glyphIndex&quot;:5,&quot;word&quot;:1}"/>
        <path d="M317.90323,291.75707h-8.86076v42.58881h8.86076z" data-paper-data="{&quot;glyphName&quot;:&quot;I&quot;,&quot;glyphIndex&quot;:6,&quot;word&quot;:1}"/>
        <path d="M356.31891,316.3957l-30.29808,-25.43895v43.38914h8.86076v-24.46713l30.29808,25.21029v-43.33197h-8.86076z" data-paper-data="{&quot;glyphName&quot;:&quot;N&quot;,&quot;glyphIndex&quot;:7,&quot;word&quot;:1}"/>
        <path d="M373.29726,291.75707v42.58881h17.32136c12.23356,0 22.23765,-9.08942 22.23765,-21.32299c0,-12.11923 -10.00408,-21.26582 -22.29481,-21.26582zM382.15802,326.34261v-26.58228h8.40343c7.4316,0 13.20539,5.54512 13.20539,13.26256c0,7.66027 -5.77379,13.31972 -13.14822,13.31972z" data-paper-data="{&quot;glyphName&quot;:&quot;D&quot;,&quot;glyphIndex&quot;:8,&quot;word&quot;:1}"/>
        <path d="M419.94488,326.34261c-2.62964,0 -4.4018,1.94365 -4.4018,4.4018c0,2.34381 1.77215,4.34463 4.4018,4.34463c2.68681,0 4.4018,-2.00082 4.4018,-4.34463c0,-2.45815 -1.77215,-4.4018 -4.4018,-4.4018z" data-paper-data="{&quot;glyphName&quot;:&quot;.&quot;,&quot;glyphIndex&quot;:9,&quot;word&quot;:1}"/>
        <path d="M462.76235,334.34588h9.66109l-22.52348,-43.33197l-22.46631,43.33197h9.14659l2.74398,-5.71662h20.63699zM449.55696,307.36344l6.51695,13.26256h-12.91956z" data-paper-data="{&quot;glyphName&quot;:&quot;A&quot;,&quot;glyphIndex&quot;:10,&quot;word&quot;:1}"/>
        <path d="M485,291.75707h-8.86076v42.58881h8.86076z" data-paper-data="{&quot;glyphName&quot;:&quot;I&quot;,&quot;glyphIndex&quot;:11,&quot;lastGlyphOfWord&quot;:true,&quot;word&quot;:1}"/>
      </g>
    </g>
  </g>
</svg>